<?xml version="1.0" encoding="UTF-8" standalone="no"?>
<!-- Created with Inkscape (http://www.inkscape.org/) -->
<svg xmlns:dc="http://purl.org/dc/elements/1.1/" xmlns:cc="http://creativecommons.org/ns#" xmlns:rdf="http://www.w3.org/1999/02/22-rdf-syntax-ns#" xmlns:svg="http://www.w3.org/2000/svg" xmlns="http://www.w3.org/2000/svg" xmlns:sodipodi="http://sodipodi.sourceforge.net/DTD/sodipodi-0.dtd" xmlns:inkscape="http://www.inkscape.org/namespaces/inkscape" width="1000" height="517.43091" viewBox="0 0 264.58333 136.9036" version="1.1" id="svg8" inkscape:version="0.92.2 (5c3e80d, 2017-08-06)" sodipodi:docname="Canadian Space Agency logo.svg">
  <defs id="defs2"/>
  <sodipodi:namedview id="base" pagecolor="#ffffff" bordercolor="#666666" borderopacity="1.0" inkscape:pageopacity="0.0" inkscape:pageshadow="2" inkscape:zoom="0.49497475" inkscape:cx="482.93916" inkscape:cy="264.2076" inkscape:document-units="mm" inkscape:current-layer="layer1" showgrid="false" inkscape:window-width="1366" inkscape:window-height="705" inkscape:window-x="-8" inkscape:window-y="-8" inkscape:window-maximized="1" units="px" fit-margin-top="0" fit-margin-left="0" fit-margin-right="0" fit-margin-bottom="0"/>
  <metadata id="metadata5">
    <rdf:RDF>
      <cc:Work rdf:about="">
        <dc:format>image/svg+xml</dc:format>
        <dc:type rdf:resource="http://purl.org/dc/dcmitype/StillImage"/>
        <dc:title/>
      </cc:Work>
    </rdf:RDF>
  </metadata>
  <g inkscape:label="Layer 1" inkscape:groupmode="layer" id="layer1" transform="translate(162.08095,-20.302294)">
    <g id="g1093">
      <g style="stroke-width:0.95127648" transform="matrix(1.0512191,0,0,1.0512191,8.2875365,-8.0519447)" id="g1036">
        <path inkscape:connector-curvature="0" style="fill:#ed1c24;fill-opacity:1;stroke:none;stroke-width:0.25169188px;stroke-linecap:butt;stroke-linejoin:miter;stroke-opacity:1" d="m -36.221564,26.97272 -4.25917,9.35447 -3.93413,-2.95124 2.38435,13.52527 -8.32249,-6.63164 -0.50126,5.47874 -7.91786,-1.80402 4.41006,7.0827 -3.64163,2.271761 12.26075,6.414598 -2.47427,3.06183 c 3.42404,0.01929 7.18911,0.836332 9.11262,3.231332 1.94003,2.415559 2.40016,7.504298 2.50682,10.167851 l 0.0315,1.713068 h 0.34468 0.34468 l 0.0315,-1.713068 c 0.10667,-2.663553 0.56679,-7.752292 2.50683,-10.167851 1.92351,-2.395 5.68858,-3.212031 9.11262,-3.231332 l -2.47427,-3.06183 12.26075,-6.414598 -3.64164,-2.271761 4.41007,-7.0827 -7.91786,1.80402 -0.50126,-5.47874 -8.32249,6.63164 2.38435,-13.52527 -3.93413,2.95124 z" id="path5999" sodipodi:nodetypes="ccccccccccccccccccccccccccccc"/>
        <path style="opacity:1;fill:#ed1c24;fill-opacity:1;stroke:none;stroke-width:0.22640383;stroke-linecap:square;stroke-linejoin:round;stroke-miterlimit:4;stroke-dasharray:none;stroke-dashoffset:0;stroke-opacity:1" d="m -36.566244,89.703779 c 0,0 0.23567,9.366002 -2.93987,12.697411 -2.85023,2.99013 -12.55273,2.86701 -12.55273,2.86701 v 0.68937 c 0,0 9.7025,-0.12313 12.55273,2.867 3.17554,3.33143 2.93987,12.69743 2.93987,12.69743 h 0.68936 c 0,0 -0.23567,-9.366 2.93987,-12.69743 2.85023,-2.99013 12.55272,-2.867 12.55272,-2.867 v -0.68937 c 0,0 -9.70249,0.12312 -12.55272,-2.86701 -3.17554,-3.331409 -2.93987,-12.697411 -2.93987,-12.697411 z" id="rect5970" inkscape:connector-curvature="0" sodipodi:nodetypes="csccccccccscc"/>
        <path sodipodi:nodetypes="csccccccccscc" inkscape:connector-curvature="0" id="path6050" d="m -42.129734,83.450929 c 0,0 -9.366,0.235662 -12.69742,-2.939878 -2.99011,-2.85024 -2.86701,-12.55272 -2.86701,-12.55272 l -0.68937,8e-6 c 0,0 0.12313,9.702491 -2.867,12.552723 -3.331414,3.175539 -12.697423,2.939867 -12.697423,2.939867 l -1.1e-5,0.689372 c 0,0 9.366001,-0.23568 12.697434,2.93987 2.9901,2.85024 2.86701,12.55272 2.86701,12.55272 h 0.68936 c 0,0 -0.12312,-9.702501 2.867,-12.55272 3.33142,-3.17554 12.69742,-2.93987 12.69742,-2.93987 z" style="opacity:1;fill:#ed1c24;fill-opacity:1;stroke:none;stroke-width:0.22640383;stroke-linecap:square;stroke-linejoin:round;stroke-miterlimit:4;stroke-dasharray:none;stroke-dashoffset:0;stroke-opacity:1"/>
        <path style="opacity:1;fill:#ed1c24;fill-opacity:1;stroke:none;stroke-width:0.22640383;stroke-linecap:square;stroke-linejoin:round;stroke-miterlimit:4;stroke-dasharray:none;stroke-dashoffset:0;stroke-opacity:1" d="m 1.5048064,83.450929 c 0,0 -9.36599,0.235662 -12.6974304,-2.939867 -2.9901,-2.850251 -2.86701,-12.552723 -2.86701,-12.552723 h -0.68935 c 0,0 0.12311,9.702501 -2.86702,12.552723 -3.33142,3.175529 -12.69741,2.939867 -12.69741,2.939867 l 1e-5,0.689361 c 0,0 9.36598,-0.235669 12.6974,2.939892 2.99011,2.85024 2.86702,12.552719 2.86702,12.552719 h 0.68936 c 0,0 -0.12312,-9.70249 2.867,-12.55273 3.3314304,-3.175532 12.6974304,-2.93987 12.6974304,-2.93987 z" id="path6052" inkscape:connector-curvature="0" sodipodi:nodetypes="csccccccccscc"/>
      </g>
      <g style="stroke-width:0.95127648" transform="matrix(1.0512191,0,0,1.0512191,8.3016408,-8.0519447)" id="g1030">
        <g aria-label="Canadian Space Agency" style="font-style:normal;font-variant:normal;font-weight:normal;font-stretch:normal;font-size:12.50616455px;line-height:1.25;font-family:Gotham;-inkscape-font-specification:Gotham;letter-spacing:0px;word-spacing:0px;fill:#000000;fill-opacity:1;stroke:none;stroke-width:0.25169188" id="text827">
          <path inkscape:connector-curvature="0" d="m -98.012919,142.902 q -1.813394,0 -2.963961,-1.26312 -1.15057,-1.26312 -1.15057,-3.38917 0,-2.12605 1.15057,-3.38917 1.150567,-1.26312 2.963961,-1.26312 1.438209,0 2.451208,0.78788 1.013,0.77539 1.33816,2.27613 h -1.063024 q -0.562777,-2.10104 -2.726344,-2.10104 -1.363172,0 -2.188581,0.97548 -0.8254,0.98799 -0.8254,2.71384 0,1.72585 0.8254,2.70133 0.825409,0.98799 2.188581,0.98799 1.025506,0 1.8259,-0.63782 0.787889,-0.6128 0.962975,-1.8384 h 1.050518 q -0.175087,1.66332 -1.263123,2.53875 -1.100542,0.90044 -2.57627,0.90044 z" style="font-style:normal;font-variant:normal;font-weight:normal;font-stretch:normal;line-height:0.75;font-family:'Helvetica Now Display';-inkscape-font-specification:'Helvetica Now Display';fill:#000000;stroke-width:0.25169188" id="path934"/>
          <path inkscape:connector-curvature="0" d="m -87.768221,141.889 h 0.362679 v 0.8129 q -0.250123,0.0375 -0.550271,0.0375 -1.013,0 -1.088037,-0.92545 -0.675333,1.03801 -2.101035,1.03801 -1.063024,0 -1.675826,-0.48774 -0.600296,-0.50025 -0.600296,-1.40069 0,-1.75087 2.388677,-2.00099 l 0.925456,-0.10005 q 1.013,-0.11255 1.013,-0.88794 0,-0.53776 -0.337667,-0.77538 -0.32516,-0.23762 -1.113048,-0.23762 -0.837913,0 -1.213098,0.28765 -0.362679,0.27513 -0.412704,0.98798 h -1.000493 q 0.125062,-2.13855 2.626295,-2.13855 2.426196,0 2.426196,1.87592 v 3.60178 q 0,0.31265 0.350172,0.31265 z m -3.32664,0.11256 q 0.800395,0 1.400691,-0.48774 0.600296,-0.47524 0.600296,-1.36317 v -0.76288 q -0.275136,0.21261 -0.850419,0.27514 l -0.937963,0.11255 q -0.812901,0.10005 -1.163073,0.37519 -0.337667,0.27513 -0.337667,0.78789 0,0.50024 0.325161,0.78788 0.32516,0.27514 0.962974,0.27514 z" style="font-style:normal;font-variant:normal;font-weight:normal;font-stretch:normal;line-height:0.75;font-family:'Helvetica Now Display';-inkscape-font-specification:'Helvetica Now Display';fill:#000000;stroke-width:0.25169188" id="path936"/>
          <path inkscape:connector-curvature="0" d="m -83.547586,136.09865 q 1.075531,0 1.675826,0.58779 0.600296,0.58779 0.600296,1.65081 v 4.36465 h -1.000493 v -4.2646 q 0,-1.43821 -1.475727,-1.43821 -0.700345,0 -1.238111,0.52526 -0.537765,0.52526 -0.537765,1.52575 v 3.6518 h -1.000493 v -6.45318 h 0.950469 v 0.96298 q 0.737863,-1.11305 2.025998,-1.11305 z" style="font-style:normal;font-variant:normal;font-weight:normal;font-stretch:normal;line-height:0.75;font-family:'Helvetica Now Display';-inkscape-font-specification:'Helvetica Now Display';fill:#000000;stroke-width:0.25169188" id="path938"/>
          <path inkscape:connector-curvature="0" d="m -74.504847,141.889 h 0.362679 v 0.8129 q -0.250123,0.0375 -0.550271,0.0375 -1.012999,0 -1.088036,-0.92545 -0.675333,1.03801 -2.101036,1.03801 -1.063024,0 -1.675826,-0.48774 -0.600296,-0.50025 -0.600296,-1.40069 0,-1.75087 2.388678,-2.00099 l 0.925456,-0.10005 q 1.012999,-0.11255 1.012999,-0.88794 0,-0.53776 -0.337666,-0.77538 -0.325161,-0.23762 -1.113049,-0.23762 -0.837913,0 -1.213098,0.28765 -0.362679,0.27513 -0.412703,0.98798 h -1.000494 q 0.125062,-2.13855 2.626295,-2.13855 2.426196,0 2.426196,1.87592 v 3.60178 q 0,0.31265 0.350172,0.31265 z m -3.326639,0.11256 q 0.800394,0 1.40069,-0.48774 0.600296,-0.47524 0.600296,-1.36317 v -0.76288 q -0.275136,0.21261 -0.850419,0.27514 l -0.937963,0.11255 q -0.8129,0.10005 -1.163073,0.37519 -0.337666,0.27513 -0.337666,0.78789 0,0.50024 0.32516,0.78788 0.32516,0.27514 0.962975,0.27514 z" style="font-style:normal;font-variant:normal;font-weight:normal;font-stretch:normal;line-height:0.75;font-family:'Helvetica Now Display';-inkscape-font-specification:'Helvetica Now Display';fill:#000000;stroke-width:0.25169188" id="path940"/>
          <path inkscape:connector-curvature="0" d="m -68.481566,137.17418 v -3.37666 h 1.000493 v 8.90438 h -0.950468 v -1.00049 q -0.775383,1.15057 -2.213591,1.15057 -1.363172,0 -2.176073,-0.92546 -0.825407,-0.92545 -0.825407,-2.45121 0,-1.55076 0.825407,-2.46371 0.800394,-0.91295 2.176073,-0.91295 1.388184,0 2.163566,1.07553 z m -4.114528,2.35116 q 0,1.15057 0.562777,1.78838 0.562778,0.63781 1.513246,0.63781 0.950469,0 1.513246,-0.66282 0.562778,-0.65032 0.562778,-1.8134 0,-1.15056 -0.562778,-1.81339 -0.562777,-0.66283 -1.513246,-0.66283 -0.937962,0 -1.513246,0.68784 -0.562777,0.67534 -0.562777,1.83841 z" style="font-style:normal;font-variant:normal;font-weight:normal;font-stretch:normal;line-height:0.75;font-family:'Helvetica Now Display';-inkscape-font-specification:'Helvetica Now Display';fill:#000000;stroke-width:0.25169188" id="path942"/>
          <path inkscape:connector-curvature="0" d="m -64.956196,135.27324 h -1.063024 v -1.2256 h 1.063024 z m -0.02501,7.42866 h -1.000493 v -6.45318 h 1.000493 z" style="font-style:normal;font-variant:normal;font-weight:normal;font-stretch:normal;line-height:0.75;font-family:'Helvetica Now Display';-inkscape-font-specification:'Helvetica Now Display';fill:#000000;stroke-width:0.25169188" id="path944"/>
          <path inkscape:connector-curvature="0" d="m -58.212637,141.889 h 0.362679 v 0.8129 q -0.250123,0.0375 -0.550271,0.0375 -1.013,0 -1.088037,-0.92545 -0.675333,1.03801 -2.101035,1.03801 -1.063024,0 -1.675826,-0.48774 -0.600296,-0.50025 -0.600296,-1.40069 0,-1.75087 2.388677,-2.00099 l 0.925456,-0.10005 q 1.013,-0.11255 1.013,-0.88794 0,-0.53776 -0.337667,-0.77538 -0.32516,-0.23762 -1.113048,-0.23762 -0.837913,0 -1.213098,0.28765 -0.362679,0.27513 -0.412704,0.98798 H -63.6153 q 0.125062,-2.13855 2.626295,-2.13855 2.426195,0 2.426195,1.87592 v 3.60178 q 0,0.31265 0.350173,0.31265 z m -3.32664,0.11256 q 0.800395,0 1.400691,-0.48774 0.600296,-0.47524 0.600296,-1.36317 v -0.76288 q -0.275136,0.21261 -0.85042,0.27514 l -0.937962,0.11255 q -0.812901,0.10005 -1.163073,0.37519 -0.337667,0.27513 -0.337667,0.78789 0,0.50024 0.325161,0.78788 0.32516,0.27514 0.962974,0.27514 z" style="font-style:normal;font-variant:normal;font-weight:normal;font-stretch:normal;line-height:0.75;font-family:'Helvetica Now Display';-inkscape-font-specification:'Helvetica Now Display';fill:#000000;stroke-width:0.25169188" id="path946"/>
          <path inkscape:connector-curvature="0" d="m -53.992001,136.09865 q 1.07553,0 1.675826,0.58779 0.600296,0.58779 0.600296,1.65081 v 4.36465 h -1.000493 v -4.2646 q 0,-1.43821 -1.475727,-1.43821 -0.700346,0 -1.238111,0.52526 -0.537765,0.52526 -0.537765,1.52575 v 3.6518 h -1.000493 v -6.45318 h 0.950469 v 0.96298 q 0.737863,-1.11305 2.025998,-1.11305 z" style="font-style:normal;font-variant:normal;font-weight:normal;font-stretch:normal;line-height:0.75;font-family:'Helvetica Now Display';-inkscape-font-specification:'Helvetica Now Display';fill:#000000;stroke-width:0.25169188" id="path948"/>
          <path inkscape:connector-curvature="0" d="m -44.530893,142.902 q -1.738357,0 -2.713838,-0.78789 -0.97548,-0.78788 -0.987987,-2.35115 h 1.088037 q 0.03752,2.18857 2.613788,2.18857 1.088036,0 1.66332,-0.42521 0.58779,-0.4252 0.58779,-1.23811 0,-0.63781 -0.487741,-0.98798 -0.475234,-0.36268 -1.675826,-0.62531 l -0.787888,-0.17509 q -1.350666,-0.31265 -2.025999,-0.90044 -0.675333,-0.6003 -0.675333,-1.67583 0,-1.06302 0.825407,-1.68833 0.825407,-0.63781 2.213591,-0.63781 0.937963,0 1.625802,0.22511 0.700345,0.22511 1.088036,0.63781 0.387691,0.4002 0.562777,0.87543 0.187593,0.47524 0.200099,1.05052 h -1.07553 q -0.07504,-0.95047 -0.625308,-1.38818 -0.537765,-0.45022 -1.775876,-0.45022 -0.937962,0 -1.450715,0.36267 -0.500246,0.36268 -0.500246,1.013 0,0.65032 0.437715,1.013 0.42521,0.36268 1.650814,0.63782 l 0.787889,0.17508 q 1.475727,0.32516 2.126047,0.93797 0.650321,0.60029 0.650321,1.60078 0,1.2131 -0.887938,1.91345 -0.887937,0.70034 -2.451208,0.70034 z" style="font-style:normal;font-variant:normal;font-weight:normal;font-stretch:normal;line-height:0.75;font-family:'Helvetica Now Display';-inkscape-font-specification:'Helvetica Now Display';fill:#000000;stroke-width:0.25169188" id="path950"/>
          <path inkscape:connector-curvature="0" d="m -36.974826,136.09865 q 1.363172,0 2.188579,0.91295 0.8129,0.92546 0.8129,2.46371 0,1.52576 -0.8129,2.45121 -0.825407,0.92546 -2.188579,0.92546 -1.388184,0 -2.163566,-1.07553 v 3.37666 h -1.000494 v -8.90439 h 0.950469 v 1.0005 q 0.775382,-1.15057 2.213591,-1.15057 z m -0.125062,5.85288 q 0.937963,0 1.50074,-0.67533 0.575284,-0.68784 0.575284,-1.85091 0,-1.13806 -0.562778,-1.77588 -0.550271,-0.65032 -1.513246,-0.65032 -0.950468,0 -1.513246,0.65032 -0.562777,0.65032 -0.562777,1.8259 0,1.16308 0.562777,1.8134 0.562778,0.66282 1.513246,0.66282 z" style="font-style:normal;font-variant:normal;font-weight:normal;font-stretch:normal;line-height:0.75;font-family:'Helvetica Now Display';-inkscape-font-specification:'Helvetica Now Display';fill:#000000;stroke-width:0.25169188" id="path952"/>
          <path inkscape:connector-curvature="0" d="m -27.631155,141.889 h 0.362679 v 0.8129 q -0.250123,0.0375 -0.550271,0.0375 -1.013,0 -1.088037,-0.92545 -0.675333,1.03801 -2.101035,1.03801 -1.063024,0 -1.675826,-0.48774 -0.600296,-0.50025 -0.600296,-1.40069 0,-1.75087 2.388677,-2.00099 l 0.925456,-0.10005 q 1.013,-0.11255 1.013,-0.88794 0,-0.53776 -0.337667,-0.77538 -0.32516,-0.23762 -1.113048,-0.23762 -0.837914,0 -1.213098,0.28765 -0.362679,0.27513 -0.412704,0.98798 h -1.000493 q 0.125062,-2.13855 2.626295,-2.13855 2.426195,0 2.426195,1.87592 v 3.60178 q 0,0.31265 0.350173,0.31265 z m -3.32664,0.11256 q 0.800395,0 1.400691,-0.48774 0.600296,-0.47524 0.600296,-1.36317 v -0.76288 q -0.275136,0.21261 -0.85042,0.27514 l -0.937962,0.11255 q -0.812901,0.10005 -1.163073,0.37519 -0.337667,0.27513 -0.337667,0.78789 0,0.50024 0.325161,0.78788 0.32516,0.27514 0.962974,0.27514 z" style="font-style:normal;font-variant:normal;font-weight:normal;font-stretch:normal;line-height:0.75;font-family:'Helvetica Now Display';-inkscape-font-specification:'Helvetica Now Display';fill:#000000;stroke-width:0.25169188" id="path954"/>
          <path inkscape:connector-curvature="0" d="m -23.783951,142.85198 q -1.338159,0 -2.163566,-0.92546 -0.825407,-0.92545 -0.825407,-2.45121 0,-1.55076 0.825407,-2.46371 0.800394,-0.91295 2.163566,-0.91295 1.150567,0 1.888431,0.62531 0.737864,0.62531 0.887938,1.71334 h -1.038012 q -0.112555,-0.68784 -0.600296,-1.06302 -0.475234,-0.37519 -1.138061,-0.37519 -0.887938,0 -1.413196,0.65032 -0.525259,0.63782 -0.525259,1.8259 0,1.17558 0.525259,1.8259 0.537765,0.65032 1.413196,0.65032 0.662827,0 1.150567,-0.38769 0.487741,-0.38769 0.600296,-1.07553 h 1.025506 q -0.16258,1.08804 -0.925457,1.72585 -0.750369,0.63782 -1.850912,0.63782 z" style="font-style:normal;font-variant:normal;font-weight:normal;font-stretch:normal;line-height:0.75;font-family:'Helvetica Now Display';-inkscape-font-specification:'Helvetica Now Display';fill:#000000;stroke-width:0.25169188" id="path956"/>
          <path inkscape:connector-curvature="0" d="m -14.310722,139.47531 v 0.35018 h -4.902416 q 0.07504,1.05051 0.587789,1.58828 0.512753,0.52526 1.400691,0.52526 1.33816,0 1.713344,-1.20059 h 1.038012 q -0.262629,0.97548 -0.975481,1.55076 -0.712851,0.56278 -1.800887,0.56278 -1.33816,0 -2.163567,-0.91295 -0.837913,-0.91295 -0.837913,-2.46372 0,-1.52575 0.825407,-2.4512 0.812901,-0.92546 2.15106,-0.92546 1.388185,0 2.176073,0.96297 0.787888,0.96298 0.787888,2.41369 z m -2.963961,-2.46371 q -0.787888,0 -1.288135,0.50025 -0.500246,0.48774 -0.625308,1.41319 h 3.801874 q -0.07504,-0.85042 -0.575283,-1.37568 -0.500247,-0.53776 -1.313148,-0.53776 z" style="font-style:normal;font-variant:normal;font-weight:normal;font-stretch:normal;line-height:0.75;font-family:'Helvetica Now Display';-inkscape-font-specification:'Helvetica Now Display';fill:#000000;stroke-width:0.25169188" id="path958"/>
          <path inkscape:connector-curvature="0" d="m -94.048465,154.60461 h -1.113048 l -1.038012,-2.58878 h -4.051995 l -1.02551,2.58878 h -1.10054 l 3.551751,-8.90439 h 1.175579 z m -5.790354,-3.63929 -0.03752,0.10005 h 3.301627 l -0.05002,-0.11256 q -0.312655,-0.76288 -1.625802,-4.11453 -0.887938,2.37617 -1.588283,4.12704 z" style="font-style:normal;font-variant:normal;font-weight:normal;font-stretch:normal;line-height:0.75;font-family:'Helvetica Now Display';-inkscape-font-specification:'Helvetica Now Display';fill:#000000;stroke-width:0.25169188" id="path960"/>
          <path inkscape:connector-curvature="0" d="m -88.412092,149.08939 v -0.93796 h 0.950468 v 6.20306 q 0,1.32565 -0.775382,2.08853 -0.775382,0.76287 -2.226097,0.76287 -1.200592,0 -1.925949,-0.55027 -0.725358,-0.55027 -0.825407,-1.52575 h 1.000493 q 0.187592,1.2256 1.750863,1.2256 2.000986,0 2.000986,-2.00098 v -0.62531 q -0.762876,1.0255 -2.163566,1.0255 -1.363172,0 -2.176073,-0.92545 -0.825407,-0.92546 -0.825407,-2.45121 0,-1.55076 0.825407,-2.46371 0.800395,-0.91295 2.176073,-0.91295 1.438209,0 2.213591,1.08803 z m -2.08853,4.76485 q 0.950469,0 1.513246,-0.66283 0.562778,-0.66282 0.562778,-1.81339 0,-1.15057 -0.562778,-1.81339 -0.562777,-0.66283 -1.513246,-0.66283 -0.937962,0 -1.513245,0.67533 -0.562778,0.67533 -0.562778,1.80089 0,1.12555 0.562778,1.80089 0.575283,0.67533 1.513245,0.67533 z" style="font-style:normal;font-variant:normal;font-weight:normal;font-stretch:normal;line-height:0.75;font-family:'Helvetica Now Display';-inkscape-font-specification:'Helvetica Now Display';fill:#000000;stroke-width:0.25169188" id="path962"/>
          <path inkscape:connector-curvature="0" d="m -80.334478,151.37802 v 0.35017 h -4.902416 q 0.07504,1.05052 0.587789,1.58829 0.512753,0.52525 1.400691,0.52525 1.338159,0 1.713344,-1.20059 h 1.038012 q -0.262629,0.97548 -0.975481,1.55077 -0.712851,0.56277 -1.800887,0.56277 -1.33816,0 -2.163567,-0.91295 -0.837913,-0.91295 -0.837913,-2.46371 0,-1.52575 0.825407,-2.45121 0.812901,-0.92545 2.15106,-0.92545 1.388184,0 2.176073,0.96297 0.787888,0.96297 0.787888,2.41369 z m -2.963961,-2.46371 q -0.787888,0 -1.288135,0.50024 -0.500246,0.48774 -0.625308,1.4132 h 3.801874 q -0.07504,-0.85042 -0.575283,-1.37568 -0.500247,-0.53776 -1.313148,-0.53776 z" style="font-style:normal;font-variant:normal;font-weight:normal;font-stretch:normal;line-height:0.75;font-family:'Helvetica Now Display';-inkscape-font-specification:'Helvetica Now Display';fill:#000000;stroke-width:0.25169188" id="path964"/>
          <path inkscape:connector-curvature="0" d="m -76.170902,148.00136 q 1.07553,0 1.675826,0.58778 0.600296,0.58779 0.600296,1.65082 v 4.36465 h -1.000494 v -4.2646 q 0,-1.43821 -1.475727,-1.43821 -0.700345,0 -1.23811,0.52526 -0.537765,0.52526 -0.537765,1.52575 v 3.6518 h -1.000494 v -6.45318 h 0.950469 v 0.96297 q 0.737864,-1.11304 2.025999,-1.11304 z" style="font-style:normal;font-variant:normal;font-weight:normal;font-stretch:normal;line-height:0.75;font-family:'Helvetica Now Display';-inkscape-font-specification:'Helvetica Now Display';fill:#000000;stroke-width:0.25169188" id="path966"/>
          <path inkscape:connector-curvature="0" d="m -69.729446,154.75468 q -1.33816,0 -2.163567,-0.92545 -0.825407,-0.92546 -0.825407,-2.45121 0,-1.55076 0.825407,-2.46371 0.800395,-0.91295 2.163567,-0.91295 1.150567,0 1.88843,0.6253 0.737864,0.62531 0.887938,1.71335 h -1.038012 q -0.112555,-0.68784 -0.600295,-1.06303 -0.475235,-0.37518 -1.138061,-0.37518 -0.887938,0 -1.413197,0.65032 -0.525259,0.63781 -0.525259,1.8259 0,1.17558 0.525259,1.8259 0.537765,0.65032 1.413197,0.65032 0.662826,0 1.150567,-0.38769 0.48774,-0.38769 0.600296,-1.07553 h 1.025505 q -0.16258,1.08804 -0.925456,1.72585 -0.75037,0.63781 -1.850912,0.63781 z" style="font-style:normal;font-variant:normal;font-weight:normal;font-stretch:normal;line-height:0.75;font-family:'Helvetica Now Display';-inkscape-font-specification:'Helvetica Now Display';fill:#000000;stroke-width:0.25169188" id="path968"/>
          <path inkscape:connector-curvature="0" d="m -62.829561,150.82775 0.91295,-2.67632 h 1.088037 l -2.726344,7.46618 q -0.287642,0.8129 -0.787889,1.13806 -0.500246,0.33767 -1.313147,0.33767 -0.275136,0 -0.600296,-0.0375 v -0.83791 h 0.58779 q 0.862925,0 1.175579,-0.8004 l 0.225111,-0.6003 -2.426196,-6.66578 h 1.100543 l 0.91295,2.68882 q 0.48774,1.42571 0.925456,2.78888 0.362679,-1.16307 0.925456,-2.80138 z" style="font-style:normal;font-variant:normal;font-weight:normal;font-stretch:normal;line-height:0.75;font-family:'Helvetica Now Display';-inkscape-font-specification:'Helvetica Now Display';fill:#000000;stroke-width:0.25169188" id="path970"/>
        </g>
        <g aria-label="Agence spatiale canadienne" style="font-style:normal;font-variant:normal;font-weight:normal;font-stretch:normal;font-size:12.50616455px;line-height:1.25;font-family:Gotham;-inkscape-font-specification:Gotham;letter-spacing:0px;word-spacing:0px;fill:#000000;fill-opacity:1;stroke:none;stroke-width:0.25169188" id="text835">
          <path inkscape:connector-curvature="0" d="M 11.973856,142.7019 H 10.860808 L 9.8227958,140.11313 H 5.7707985 L 4.745293,142.7019 H 3.6447506 l 3.5517507,-8.90438 h 1.1755795 z m -5.790354,-3.63929 -0.037519,0.10005 h 3.3016274 l -0.050025,-0.11256 q -0.3126542,-0.76287 -1.6258014,-4.11452 -0.8879377,2.37617 -1.588282,4.12703 z" style="font-style:normal;font-variant:normal;font-weight:normal;font-stretch:normal;line-height:0.75;font-family:'Helvetica Now Display';-inkscape-font-specification:'Helvetica Now Display';fill:#000000;stroke-width:0.25169188" id="path885"/>
          <path inkscape:connector-curvature="0" d="m 17.610229,137.18669 v -0.93797 h 0.950468 v 6.20306 q 0,1.32565 -0.775382,2.08853 -0.775382,0.76288 -2.226097,0.76288 -1.200592,0 -1.92595,-0.55027 -0.725357,-0.55028 -0.825407,-1.52576 h 1.000494 q 0.187592,1.22561 1.750863,1.22561 2.000986,0 2.000986,-2.00099 v -0.62531 q -0.762876,1.02551 -2.163566,1.02551 -1.363172,0 -2.176073,-0.92546 -0.825407,-0.92545 -0.825407,-2.45121 0,-1.55076 0.825407,-2.46371 0.800394,-0.91295 2.176073,-0.91295 1.438208,0 2.213591,1.08804 z m -2.08853,4.76484 q 0.950469,0 1.513246,-0.66282 0.562777,-0.66283 0.562777,-1.8134 0,-1.15056 -0.562777,-1.81339 -0.562777,-0.66283 -1.513246,-0.66283 -0.937962,0 -1.513246,0.67534 -0.562777,0.67533 -0.562777,1.80088 0,1.12556 0.562777,1.80089 0.575284,0.67533 1.513246,0.67533 z" style="font-style:normal;font-variant:normal;font-weight:normal;font-stretch:normal;line-height:0.75;font-family:'Helvetica Now Display';-inkscape-font-specification:'Helvetica Now Display';fill:#000000;stroke-width:0.25169188" id="path887"/>
          <path inkscape:connector-curvature="0" d="m 25.687843,139.47531 v 0.35018 h -4.902417 q 0.07504,1.05051 0.58779,1.58828 0.512753,0.52526 1.400691,0.52526 1.338159,0 1.713344,-1.20059 h 1.038012 q -0.26263,0.97548 -0.975481,1.55076 -0.712851,0.56278 -1.800888,0.56278 -1.338159,0 -2.163566,-0.91295 -0.837913,-0.91295 -0.837913,-2.46372 0,-1.52575 0.825407,-2.4512 0.8129,-0.92546 2.15106,-0.92546 1.388184,0 2.176073,0.96297 0.787888,0.96298 0.787888,2.41369 z m -2.963961,-2.46371 q -0.787888,0 -1.288135,0.50025 -0.500247,0.48774 -0.625308,1.41319 h 3.801874 q -0.07504,-0.85042 -0.575284,-1.37568 -0.500246,-0.53776 -1.313147,-0.53776 z" style="font-style:normal;font-variant:normal;font-weight:normal;font-stretch:normal;line-height:0.75;font-family:'Helvetica Now Display';-inkscape-font-specification:'Helvetica Now Display';fill:#000000;stroke-width:0.25169188" id="path889"/>
          <path inkscape:connector-curvature="0" d="m 29.851418,136.09865 q 1.075531,0 1.675826,0.58779 0.600296,0.58779 0.600296,1.65081 v 4.36465 h -1.000493 v -4.2646 q 0,-1.43821 -1.475727,-1.43821 -0.700345,0 -1.238111,0.52526 -0.537765,0.52526 -0.537765,1.52575 v 3.6518 h -1.000493 v -6.45318 h 0.950469 v 0.96298 q 0.737863,-1.11305 2.025998,-1.11305 z" style="font-style:normal;font-variant:normal;font-weight:normal;font-stretch:normal;line-height:0.75;font-family:'Helvetica Now Display';-inkscape-font-specification:'Helvetica Now Display';fill:#000000;stroke-width:0.25169188" id="path891"/>
          <path inkscape:connector-curvature="0" d="m 36.292874,142.85198 q -1.338159,0 -2.163566,-0.92546 -0.825407,-0.92545 -0.825407,-2.45121 0,-1.55076 0.825407,-2.46371 0.800394,-0.91295 2.163566,-0.91295 1.150567,0 1.888431,0.62531 0.737864,0.62531 0.887938,1.71334 h -1.038012 q -0.112555,-0.68784 -0.600296,-1.06302 -0.475234,-0.37519 -1.138061,-0.37519 -0.887937,0 -1.413196,0.65032 -0.525259,0.63782 -0.525259,1.8259 0,1.17558 0.525259,1.8259 0.537765,0.65032 1.413196,0.65032 0.662827,0 1.150567,-0.38769 0.487741,-0.38769 0.600296,-1.07553 h 1.025506 q -0.16258,1.08804 -0.925456,1.72585 -0.75037,0.63782 -1.850913,0.63782 z" style="font-style:normal;font-variant:normal;font-weight:normal;font-stretch:normal;line-height:0.75;font-family:'Helvetica Now Display';-inkscape-font-specification:'Helvetica Now Display';fill:#000000;stroke-width:0.25169188" id="path893"/>
          <path inkscape:connector-curvature="0" d="m 45.7661,139.47531 v 0.35018 h -4.902417 q 0.07504,1.05051 0.58779,1.58828 0.512753,0.52526 1.40069,0.52526 1.33816,0 1.713345,-1.20059 h 1.038011 q -0.262629,0.97548 -0.97548,1.55076 -0.712852,0.56278 -1.800888,0.56278 -1.33816,0 -2.163567,-0.91295 -0.837913,-0.91295 -0.837913,-2.46372 0,-1.52575 0.825407,-2.4512 0.812901,-0.92546 2.151061,-0.92546 1.388184,0 2.176072,0.96297 0.787889,0.96298 0.787889,2.41369 z m -2.963961,-2.46371 q -0.787889,0 -1.288135,0.50025 -0.500247,0.48774 -0.625309,1.41319 h 3.801874 q -0.07504,-0.85042 -0.575283,-1.37568 -0.500247,-0.53776 -1.313147,-0.53776 z" style="font-style:normal;font-variant:normal;font-weight:normal;font-stretch:normal;line-height:0.75;font-family:'Helvetica Now Display';-inkscape-font-specification:'Helvetica Now Display';fill:#000000;stroke-width:0.25169188" id="path895"/>
          <path inkscape:connector-curvature="0" d="m 51.598663,142.85198 q -2.588776,0 -2.73885,-2.20109 h 1.012999 q 0.08754,0.72536 0.475235,1.03801 0.400197,0.30015 1.250616,0.30015 1.550764,0 1.550764,-1.00049 0,-0.43772 -0.32516,-0.66283 -0.312654,-0.22511 -1.150567,-0.38769 l -0.600296,-0.11255 q -2.013492,-0.37519 -2.013492,-1.90094 0,-0.83791 0.625308,-1.32565 0.637814,-0.50025 1.725851,-0.50025 2.563763,0 2.626294,2.13855 h -1.000493 q -0.03752,-0.70034 -0.42521,-0.98798 -0.387691,-0.28765 -1.200591,-0.28765 -0.650321,0 -1.000494,0.25013 -0.350172,0.25012 -0.350172,0.70034 0,0.42521 0.300148,0.63782 0.300148,0.2126 1.000493,0.36268 l 0.575283,0.11255 q 1.188086,0.23762 1.700839,0.67533 0.525259,0.43772 0.525259,1.22561 0,0.91295 -0.687839,1.4257 -0.675333,0.50025 -1.875925,0.50025 z" style="font-style:normal;font-variant:normal;font-weight:normal;font-stretch:normal;line-height:0.75;font-family:'Helvetica Now Display';-inkscape-font-specification:'Helvetica Now Display';fill:#000000;stroke-width:0.25169188" id="path897"/>
          <path inkscape:connector-curvature="0" d="m 58.324438,136.09865 q 1.363172,0 2.188579,0.91295 0.8129,0.92546 0.8129,2.46371 0,1.52576 -0.8129,2.45121 -0.825407,0.92546 -2.188579,0.92546 -1.388184,0 -2.163567,-1.07553 v 3.37666 h -1.000493 v -8.90439 h 0.950469 v 1.0005 q 0.775382,-1.15057 2.213591,-1.15057 z m -0.125062,5.85288 q 0.937963,0 1.50074,-0.67533 0.575284,-0.68784 0.575284,-1.85091 0,-1.13806 -0.562778,-1.77588 -0.550271,-0.65032 -1.513246,-0.65032 -0.950468,0 -1.513246,0.65032 -0.562777,0.65032 -0.562777,1.8259 0,1.16308 0.562777,1.8134 0.562778,0.66282 1.513246,0.66282 z" style="font-style:normal;font-variant:normal;font-weight:normal;font-stretch:normal;line-height:0.75;font-family:'Helvetica Now Display';-inkscape-font-specification:'Helvetica Now Display';fill:#000000;stroke-width:0.25169188" id="path899"/>
          <path inkscape:connector-curvature="0" d="m 67.668105,141.889 h 0.362679 v 0.8129 q -0.250123,0.0375 -0.550271,0.0375 -1.013,0 -1.088037,-0.92545 -0.675332,1.03801 -2.101035,1.03801 -1.063024,0 -1.675826,-0.48774 -0.600296,-0.50025 -0.600296,-1.40069 0,-1.75087 2.388677,-2.00099 l 0.925456,-0.10005 q 1.013,-0.11255 1.013,-0.88794 0,-0.53776 -0.337667,-0.77538 -0.32516,-0.23762 -1.113048,-0.23762 -0.837913,0 -1.213098,0.28765 -0.362679,0.27513 -0.412704,0.98798 h -1.000493 q 0.125062,-2.13855 2.626295,-2.13855 2.426196,0 2.426196,1.87592 v 3.60178 q 0,0.31265 0.350172,0.31265 z m -3.32664,0.11256 q 0.800395,0 1.400691,-0.48774 0.600296,-0.47524 0.600296,-1.36317 v -0.76288 q -0.275136,0.21261 -0.850419,0.27514 l -0.937963,0.11255 q -0.8129,0.10005 -1.163073,0.37519 -0.337667,0.27513 -0.337667,0.78789 0,0.50024 0.325161,0.78788 0.32516,0.27514 0.962974,0.27514 z" style="font-style:normal;font-variant:normal;font-weight:normal;font-stretch:normal;line-height:0.75;font-family:'Helvetica Now Display';-inkscape-font-specification:'Helvetica Now Display';fill:#000000;stroke-width:0.25169188" id="path901"/>
          <path inkscape:connector-curvature="0" d="m 71.494409,136.24872 v 0.87543 h -1.325654 v 4.18957 q 0,0.55027 0.737864,0.55027 h 0.58779 v 0.83791 q -0.412704,0.0375 -0.712852,0.0375 -1.613295,0 -1.613295,-1.33816 v -4.27711 h -1.063024 v -0.87543 h 1.063024 v -1.8259 h 1.000493 v 1.8259 z" style="font-style:normal;font-variant:normal;font-weight:normal;font-stretch:normal;line-height:0.75;font-family:'Helvetica Now Display';-inkscape-font-specification:'Helvetica Now Display';fill:#000000;stroke-width:0.25169188" id="path903"/>
          <path inkscape:connector-curvature="0" d="m 73.577272,135.27324 h -1.063024 v -1.2256 h 1.063024 z m -0.02501,7.42866 h -1.000493 v -6.45318 h 1.000493 z" style="font-style:normal;font-variant:normal;font-weight:normal;font-stretch:normal;line-height:0.75;font-family:'Helvetica Now Display';-inkscape-font-specification:'Helvetica Now Display';fill:#000000;stroke-width:0.25169188" id="path905"/>
          <path inkscape:connector-curvature="0" d="m 80.32083,141.889 h 0.362679 v 0.8129 q -0.250123,0.0375 -0.550271,0.0375 -1.012999,0 -1.088036,-0.92545 -0.675333,1.03801 -2.101036,1.03801 -1.063024,0 -1.675826,-0.48774 -0.600296,-0.50025 -0.600296,-1.40069 0,-1.75087 2.388677,-2.00099 l 0.925457,-0.10005 q 1.012999,-0.11255 1.012999,-0.88794 0,-0.53776 -0.337666,-0.77538 -0.325161,-0.23762 -1.113049,-0.23762 -0.837913,0 -1.213098,0.28765 -0.362679,0.27513 -0.412704,0.98798 h -1.000493 q 0.125062,-2.13855 2.626295,-2.13855 2.426196,0 2.426196,1.87592 v 3.60178 q 0,0.31265 0.350172,0.31265 z m -3.326639,0.11256 q 0.800394,0 1.40069,-0.48774 0.600296,-0.47524 0.600296,-1.36317 v -0.76288 q -0.275136,0.21261 -0.850419,0.27514 l -0.937963,0.11255 q -0.8129,0.10005 -1.163073,0.37519 -0.337666,0.27513 -0.337666,0.78789 0,0.50024 0.32516,0.78788 0.32516,0.27514 0.962975,0.27514 z" style="font-style:normal;font-variant:normal;font-weight:normal;font-stretch:normal;line-height:0.75;font-family:'Helvetica Now Display';-inkscape-font-specification:'Helvetica Now Display';fill:#000000;stroke-width:0.25169188" id="path907"/>
          <path inkscape:connector-curvature="0" d="m 82.492208,142.7019 h -1.000493 v -8.90438 h 1.000493 z" style="font-style:normal;font-variant:normal;font-weight:normal;font-stretch:normal;line-height:0.75;font-family:'Helvetica Now Display';-inkscape-font-specification:'Helvetica Now Display';fill:#000000;stroke-width:0.25169188" id="path909"/>
          <path inkscape:connector-curvature="0" d="m 89.610952,139.47531 v 0.35018 h -4.902416 q 0.07504,1.05051 0.587789,1.58828 0.512753,0.52526 1.400691,0.52526 1.338159,0 1.713344,-1.20059 h 1.038012 q -0.26263,0.97548 -0.975481,1.55076 -0.712851,0.56278 -1.800888,0.56278 -1.338159,0 -2.163566,-0.91295 -0.837913,-0.91295 -0.837913,-2.46372 0,-1.52575 0.825407,-2.4512 0.8129,-0.92546 2.15106,-0.92546 1.388184,0 2.176073,0.96297 0.787888,0.96298 0.787888,2.41369 z m -2.963961,-2.46371 q -0.787888,0 -1.288135,0.50025 -0.500246,0.48774 -0.625308,1.41319 h 3.801874 q -0.07504,-0.85042 -0.575284,-1.37568 -0.500246,-0.53776 -1.313147,-0.53776 z" style="font-style:normal;font-variant:normal;font-weight:normal;font-stretch:normal;line-height:0.75;font-family:'Helvetica Now Display';-inkscape-font-specification:'Helvetica Now Display';fill:#000000;stroke-width:0.25169188" id="path911"/>
          <path inkscape:connector-curvature="0" d="m 6.8838472,154.75468 q -1.3381596,0 -2.1635665,-0.92545 -0.8254069,-0.92546 -0.8254069,-2.45121 0,-1.55076 0.8254069,-2.46371 0.8003945,-0.91295 2.1635665,-0.91295 1.1505671,0 1.8884308,0.6253 0.7378637,0.62531 0.8879377,1.71335 H 8.622204 q -0.1125554,-0.68784 -0.6002959,-1.06303 -0.4752342,-0.37518 -1.1380609,-0.37518 -0.8879377,0 -1.4131966,0.65032 -0.5252589,0.63781 -0.5252589,1.8259 0,1.17558 0.5252589,1.8259 0.5377651,0.65032 1.4131966,0.65032 0.6628267,0 1.1505671,-0.38769 0.4877404,-0.38769 0.6002959,-1.07553 h 1.0255055 q -0.1625801,1.08804 -0.9254562,1.72585 -0.7503698,0.63781 -1.8509123,0.63781 z" style="font-style:normal;font-variant:normal;font-weight:normal;font-stretch:normal;line-height:0.75;font-family:'Helvetica Now Display';-inkscape-font-specification:'Helvetica Now Display';fill:#000000;stroke-width:0.25169188" id="path913"/>
          <path inkscape:connector-curvature="0" d="m 16.006899,153.79171 h 0.362679 v 0.8129 q -0.250124,0.0375 -0.550272,0.0375 -1.012999,0 -1.088036,-0.92546 -0.675333,1.03801 -2.101036,1.03801 -1.063023,0 -1.675826,-0.48774 -0.600295,-0.50024 -0.600295,-1.40069 0,-1.75086 2.388677,-2.00098 l 0.925456,-0.10005 q 1.012999,-0.11256 1.012999,-0.88794 0,-0.53777 -0.337666,-0.77538 -0.32516,-0.23762 -1.113049,-0.23762 -0.837913,0 -1.213098,0.28764 -0.362678,0.27514 -0.412703,0.98799 h -1.000493 q 0.125061,-2.13855 2.626294,-2.13855 2.426196,0 2.426196,1.87592 v 3.60178 q 0,0.31265 0.350173,0.31265 z m -3.32664,0.11255 q 0.800395,0 1.400691,-0.48774 0.600295,-0.47523 0.600295,-1.36317 v -0.76287 q -0.275135,0.2126 -0.850419,0.27513 l -0.937962,0.11256 q -0.812901,0.10005 -1.163073,0.37518 -0.337667,0.27514 -0.337667,0.78789 0,0.50025 0.32516,0.78789 0.325161,0.27513 0.962975,0.27513 z" style="font-style:normal;font-variant:normal;font-weight:normal;font-stretch:normal;line-height:0.75;font-family:'Helvetica Now Display';-inkscape-font-specification:'Helvetica Now Display';fill:#000000;stroke-width:0.25169188" id="path915"/>
          <path inkscape:connector-curvature="0" d="m 20.227534,148.00136 q 1.07553,0 1.675826,0.58778 0.600296,0.58779 0.600296,1.65082 v 4.36465 h -1.000493 v -4.2646 q 0,-1.43821 -1.475727,-1.43821 -0.700346,0 -1.238111,0.52526 -0.537765,0.52526 -0.537765,1.52575 v 3.6518 h -1.000493 v -6.45318 h 0.950469 v 0.96297 q 0.737863,-1.11304 2.025998,-1.11304 z" style="font-style:normal;font-variant:normal;font-weight:normal;font-stretch:normal;line-height:0.75;font-family:'Helvetica Now Display';-inkscape-font-specification:'Helvetica Now Display';fill:#000000;stroke-width:0.25169188" id="path917"/>
          <path inkscape:connector-curvature="0" d="m 29.270272,153.79171 h 0.362679 v 0.8129 q -0.250123,0.0375 -0.550271,0.0375 -1.012999,0 -1.088036,-0.92546 -0.675333,1.03801 -2.101036,1.03801 -1.063024,0 -1.675826,-0.48774 -0.600296,-0.50024 -0.600296,-1.40069 0,-1.75086 2.388677,-2.00098 l 0.925457,-0.10005 q 1.012999,-0.11256 1.012999,-0.88794 0,-0.53777 -0.337667,-0.77538 -0.32516,-0.23762 -1.113048,-0.23762 -0.837913,0 -1.213098,0.28764 -0.362679,0.27514 -0.412704,0.98799 h -1.000493 q 0.125062,-2.13855 2.626295,-2.13855 2.426196,0 2.426196,1.87592 v 3.60178 q 0,0.31265 0.350172,0.31265 z m -3.326639,0.11255 q 0.800394,0 1.40069,-0.48774 0.600296,-0.47523 0.600296,-1.36317 v -0.76287 q -0.275136,0.2126 -0.850419,0.27513 l -0.937963,0.11256 q -0.8129,0.10005 -1.163073,0.37518 -0.337666,0.27514 -0.337666,0.78789 0,0.50025 0.32516,0.78789 0.32516,0.27513 0.962975,0.27513 z" style="font-style:normal;font-variant:normal;font-weight:normal;font-stretch:normal;line-height:0.75;font-family:'Helvetica Now Display';-inkscape-font-specification:'Helvetica Now Display';fill:#000000;stroke-width:0.25169188" id="path919"/>
          <path inkscape:connector-curvature="0" d="m 35.293555,149.07689 v -3.37667 h 1.000493 v 8.90439 h -0.950469 v -1.00049 q -0.775382,1.15056 -2.213591,1.15056 -1.363172,0 -2.176072,-0.92545 -0.825407,-0.92546 -0.825407,-2.45121 0,-1.55076 0.825407,-2.46371 0.800394,-0.91295 2.176072,-0.91295 1.388185,0 2.163567,1.07553 z m -4.114528,2.35115 q 0,1.15057 0.562777,1.78839 0.562777,0.63781 1.513246,0.63781 0.950468,0 1.513246,-0.66283 0.562777,-0.65032 0.562777,-1.81339 0,-1.15057 -0.562777,-1.81339 -0.562778,-0.66283 -1.513246,-0.66283 -0.937962,0 -1.513246,0.68784 -0.562777,0.67533 -0.562777,1.8384 z" style="font-style:normal;font-variant:normal;font-weight:normal;font-stretch:normal;line-height:0.75;font-family:'Helvetica Now Display';-inkscape-font-specification:'Helvetica Now Display';fill:#000000;stroke-width:0.25169188" id="path921"/>
          <path inkscape:connector-curvature="0" d="m 38.818925,147.17595 h -1.063024 v -1.22561 h 1.063024 z m -0.02501,7.42866 H 37.79342 v -6.45318 h 1.000493 z" style="font-style:normal;font-variant:normal;font-weight:normal;font-stretch:normal;line-height:0.75;font-family:'Helvetica Now Display';-inkscape-font-specification:'Helvetica Now Display';fill:#000000;stroke-width:0.25169188" id="path923"/>
          <path inkscape:connector-curvature="0" d="m 45.912656,151.37802 v 0.35017 H 41.01024 q 0.07504,1.05052 0.58779,1.58829 0.512752,0.52525 1.40069,0.52525 1.33816,0 1.713345,-1.20059 h 1.038011 q -0.262629,0.97548 -0.975481,1.55077 -0.712851,0.56277 -1.800887,0.56277 -1.33816,0 -2.163567,-0.91295 -0.837913,-0.91295 -0.837913,-2.46371 0,-1.52575 0.825407,-2.45121 0.812901,-0.92545 2.15106,-0.92545 1.388185,0 2.176073,0.96297 0.787888,0.96297 0.787888,2.41369 z m -2.963961,-2.46371 q -0.787888,0 -1.288135,0.50024 -0.500246,0.48774 -0.625308,1.4132 h 3.801874 q -0.07504,-0.85042 -0.575283,-1.37568 -0.500247,-0.53776 -1.313148,-0.53776 z" style="font-style:normal;font-variant:normal;font-weight:normal;font-stretch:normal;line-height:0.75;font-family:'Helvetica Now Display';-inkscape-font-specification:'Helvetica Now Display';fill:#000000;stroke-width:0.25169188" id="path925"/>
          <path inkscape:connector-curvature="0" d="m 50.07623,148.00136 q 1.07553,0 1.675826,0.58778 0.600296,0.58779 0.600296,1.65082 v 4.36465 h -1.000493 v -4.2646 q 0,-1.43821 -1.475728,-1.43821 -0.700345,0 -1.23811,0.52526 -0.537765,0.52526 -0.537765,1.52575 v 3.6518 h -1.000493 v -6.45318 h 0.950468 v 0.96297 q 0.737864,-1.11304 2.025999,-1.11304 z" style="font-style:normal;font-variant:normal;font-weight:normal;font-stretch:normal;line-height:0.75;font-family:'Helvetica Now Display';-inkscape-font-specification:'Helvetica Now Display';fill:#000000;stroke-width:0.25169188" id="path927"/>
          <path inkscape:connector-curvature="0" d="m 56.817838,148.00136 q 1.07553,0 1.675826,0.58778 0.600296,0.58779 0.600296,1.65082 v 4.36465 h -1.000494 v -4.2646 q 0,-1.43821 -1.475727,-1.43821 -0.700345,0 -1.23811,0.52526 -0.537765,0.52526 -0.537765,1.52575 v 3.6518 H 53.84137 v -6.45318 h 0.950469 v 0.96297 q 0.737864,-1.11304 2.025999,-1.11304 z" style="font-style:normal;font-variant:normal;font-weight:normal;font-stretch:normal;line-height:0.75;font-family:'Helvetica Now Display';-inkscape-font-specification:'Helvetica Now Display';fill:#000000;stroke-width:0.25169188" id="path929"/>
          <path inkscape:connector-curvature="0" d="m 66.210748,151.37802 v 0.35017 h -4.902416 q 0.07504,1.05052 0.58779,1.58829 0.512752,0.52525 1.40069,0.52525 1.33816,0 1.713345,-1.20059 h 1.038011 q -0.262629,0.97548 -0.975481,1.55077 -0.712851,0.56277 -1.800887,0.56277 -1.33816,0 -2.163567,-0.91295 -0.837913,-0.91295 -0.837913,-2.46371 0,-1.52575 0.825407,-2.45121 0.812901,-0.92545 2.15106,-0.92545 1.388185,0 2.176073,0.96297 0.787888,0.96297 0.787888,2.41369 z m -2.963961,-2.46371 q -0.787888,0 -1.288135,0.50024 -0.500246,0.48774 -0.625308,1.4132 h 3.801874 q -0.07504,-0.85042 -0.575283,-1.37568 -0.500247,-0.53776 -1.313148,-0.53776 z" style="font-style:normal;font-variant:normal;font-weight:normal;font-stretch:normal;line-height:0.75;font-family:'Helvetica Now Display';-inkscape-font-specification:'Helvetica Now Display';fill:#000000;stroke-width:0.25169188" id="path931"/>
        </g>
        <g style="stroke-width:0.95127648" id="g979">
          <rect id="rect837" height="20.801785" width="10.400892" x="-162.08095" y="133.7332" style="fill:#ea2d38;fill-opacity:1;stroke-width:0.25169191"/>
          <path id="path841" d="m -141.27949,135.68337 -1.41922,2.64704 c -0.16105,0.28769 -0.44958,0.261 -0.73812,0.10032 l -1.02748,-0.53205 0.76579,4.06579 c 0.16105,0.7428 -0.35565,0.7428 -0.61064,0.42163 l -1.79316,-2.00741 -0.29111,1.01941 c -0.0336,0.13387 -0.18118,0.27448 -0.40262,0.24099 l -2.26747,-0.47674 0.59557,2.16525 c 0.12749,0.48179 0.22694,0.68127 -0.12871,0.80834 l -0.8082,0.37985 3.9033,3.17054 c 0.15449,0.11988 0.23255,0.33562 0.17755,0.53095 l -0.34162,1.12109 c 1.34396,-0.15492 2.54817,-0.38799 3.89282,-0.53153 0.1187,-0.0127 0.31743,0.18322 0.31661,0.32079 l -0.17807,4.10724 h 0.65344 l -0.10286,-4.09843 c -8.2e-4,-0.13757 0.17947,-0.34227 0.29817,-0.3296 1.34465,0.14354 2.54886,0.37661 3.89282,0.53153 l -0.34162,-1.12109 c -0.055,-0.19533 0.0231,-0.41107 0.17755,-0.53095 l 3.9033,-3.17054 -0.8082,-0.37985 c -0.35565,-0.12707 -0.2562,-0.32655 -0.12871,-0.80834 l 0.59557,-2.16525 -2.26747,0.47674 c -0.22144,0.0335 -0.36905,-0.10712 -0.40262,-0.24099 l -0.29111,-1.01941 -1.79316,2.00741 c -0.25499,0.32117 -0.77169,0.32117 -0.61065,-0.42163 l 0.7658,-4.06579 -1.02748,0.53205 c -0.28854,0.16068 -0.57707,0.18737 -0.73812,-0.10032" inkscape:connector-curvature="0" style="fill:#ea2d38;fill-opacity:1;stroke-width:0.25169191"/>
          <rect style="fill:#ea2d38;fill-opacity:1;stroke-width:0.25169191" y="133.7332" x="-130.87827" width="10.400892" height="20.801785" id="rect856"/>
        </g>
      </g>
    </g>
  </g>
</svg>